<?xml version="1.0" standalone="no"?>
<!DOCTYPE svg PUBLIC "-//W3C//DTD SVG 20010904//EN"
 "http://www.w3.org/TR/2001/REC-SVG-20010904/DTD/svg10.dtd">
<svg version="1.0" xmlns="http://www.w3.org/2000/svg"
 width="1125.000000pt" height="1262.000000pt" viewBox="0 0 1125.000000 1262.000000"
 preserveAspectRatio="xMidYMid meet">

<g transform="translate(0.000000,1262.000000) scale(0.100000,-0.100000)"
fill="#000000" stroke="none">
<path d="M5570 11594 c-783 -56 -1509 -275 -2183 -658 -575 -326 -1113 -798
-1523 -1336 -875 -1147 -1222 -2613 -958 -4046 211 -1150 820 -2200 1718
-2963 778 -661 1738 -1072 2746 -1175 352 -36 522 -41 787 -22 136 9 315 26
396 37 1189 158 2259 714 3070 1594 1138 1235 1594 2934 1231 4590 -46 207
-92 370 -165 575 -214 609 -525 1149 -948 1645 -110 129 -418 437 -546 546
-764 649 -1656 1048 -2634 1179 -194 25 -543 50 -691 49 -63 -1 -198 -8 -300
-15z m65 -904 c99 -48 114 -237 24 -301 -93 -66 -198 -3 -215 127 -10 86 20
153 81 180 41 18 62 17 110 -6z m538 -1 c71 -39 97 -170 51 -260 -29 -58 -108
-79 -158 -42 -77 56 -72 263 7 301 30 14 73 15 100 1z m-1082 -84 c10 -16 34
-86 55 -153 40 -135 39 -142 -21 -142 -33 0 -28 -11 -77 170 -7 25 -13 47 -15
49 -1 2 -16 -9 -34 -23 -34 -29 -44 -26 -54 17 -6 23 -1 34 38 73 53 53 82 55
108 9z m1550 25 c15 -8 19 -22 19 -60 0 -47 -25 -241 -35 -267 -4 -12 -60 -2
-77 15 -4 4 -1 43 7 86 21 110 20 147 -5 153 -29 8 -21 33 19 60 38 26 45 27
72 13z m-739 -67 c36 -32 10 -123 -36 -123 -31 0 -45 13 -55 46 -13 46 10 94
45 94 15 0 36 -7 46 -17z m-558 -24 c31 -24 35 -72 9 -101 -16 -18 -49 -23
-69 -10 -16 10 -34 48 -34 71 0 18 42 61 60 61 4 0 19 -9 34 -21z m1086 -71
c0 -27 -30 -68 -49 -68 -34 0 -54 70 -28 102 30 38 77 18 77 -34z m-1740 -89
c33 -67 60 -128 60 -135 0 -16 -31 -34 -58 -34 -15 0 -26 19 -51 85 -18 46
-37 87 -42 91 -6 3 -21 -4 -34 -16 l-23 -22 -17 26 c-10 14 -14 33 -10 45 7
22 81 81 102 81 8 0 40 -55 73 -121z m2433 107 c26 -20 21 -74 -20 -199 -20
-61 -37 -113 -39 -115 -6 -9 -74 34 -74 47 0 8 11 43 25 77 14 35 28 77 31 93
5 25 3 30 -17 33 -33 4 -37 41 -7 62 27 19 77 20 101 2z m-2264 -50 c32 -34
26 -90 -10 -94 -36 -4 -79 32 -79 68 0 51 52 66 89 26z m2045 4 c14 -14 9 -70
-9 -90 -28 -31 -67 -35 -87 -10 -25 31 -22 67 8 96 19 20 31 24 52 19 15 -3
31 -10 36 -15z m-2617 -171 c28 -46 64 -102 80 -124 15 -22 29 -43 31 -47 3
-7 -62 -38 -79 -38 -5 0 -23 28 -40 63 -17 34 -41 75 -52 91 l-20 29 -18 -22
c-9 -11 -20 -21 -24 -21 -8 0 -35 65 -35 85 0 17 78 77 94 72 6 -2 34 -41 63
-88z m3268 59 c43 -20 27 -85 -58 -234 -13 -23 -26 -51 -29 -62 l-6 -21 -41
20 c-46 22 -55 54 -23 82 22 20 78 134 69 143 -3 3 -23 7 -44 7 -34 2 -38 5
-41 30 -3 21 2 29 20 36 33 14 123 13 153 -1z m-1390 -98 c184 -14 237 -23
440 -71 360 -87 517 -142 820 -290 218 -106 342 -182 580 -353 147 -107 376
-313 485 -437 36 -40 73 -83 83 -94 11 -11 40 -47 65 -80 25 -33 80 -103 123
-155 256 -317 495 -781 622 -1210 120 -402 166 -782 147 -1211 -12 -263 -16
-304 -51 -484 -69 -350 -129 -534 -274 -840 -30 -64 -55 -120 -55 -123 0 -4
-18 -38 -39 -75 -22 -37 -43 -77 -47 -89 -3 -12 -21 -43 -38 -68 -107 -160
-165 -243 -210 -300 -29 -36 -67 -87 -86 -115 -121 -177 -411 -475 -628 -644
-130 -102 -337 -246 -412 -287 -25 -14 -74 -43 -110 -65 -96 -58 -395 -190
-550 -242 -253 -85 -473 -136 -700 -162 -74 -8 -171 -19 -215 -25 -143 -18
-471 -24 -590 -11 -191 21 -522 87 -670 134 -339 107 -633 241 -850 387 -38
26 -96 64 -128 85 -75 48 -276 203 -392 303 -225 193 -514 522 -683 779 -146
220 -159 243 -257 441 -194 390 -311 783 -370 1237 -19 142 -27 570 -15 730
32 406 152 923 261 1125 36 66 126 190 138 190 15 0 -6 -69 -49 -170 -73 -168
-165 -479 -199 -675 -6 -33 -19 -112 -30 -175 -35 -195 -45 -335 -45 -610 -1
-272 5 -334 54 -635 36 -214 99 -441 186 -663 58 -147 262 -567 310 -637 15
-22 50 -74 77 -115 50 -74 162 -224 262 -350 92 -115 299 -322 431 -432 455
-378 809 -576 1307 -735 199 -63 488 -121 672 -134 384 -29 941 38 1340 160
434 134 820 345 1120 612 34 30 88 77 120 104 69 58 87 76 215 210 52 55 106
115 120 134 14 19 42 53 63 75 98 107 325 479 411 676 16 36 48 104 72 151
113 226 239 650 269 904 37 313 28 750 -20 1025 -34 192 -66 350 -75 374 -5
15 -17 57 -25 94 -58 253 -214 626 -368 882 -79 132 -237 358 -286 409 -7 8
-38 47 -67 85 -81 107 -355 371 -468 451 -55 39 -122 88 -150 110 -56 45 -269
165 -328 186 -21 7 -38 19 -38 27 0 8 -6 12 -15 8 -20 -7 -19 14 1 29 14 10 3
19 -76 59 -100 51 -187 76 -238 68 -34 -5 -128 18 -303 73 -123 38 -286 74
-484 106 -244 40 -722 29 -970 -20 -97 -20 -253 -61 -495 -131 -74 -22 -165
-46 -202 -54 -83 -19 -271 -97 -443 -183 -374 -188 -597 -355 -794 -597 -95
-116 -255 -337 -291 -401 -19 -33 -53 -90 -77 -127 -24 -36 -70 -120 -102
-185 -162 -325 -277 -681 -331 -1023 -11 -74 -29 -189 -40 -255 -44 -279 -49
-512 -15 -825 37 -352 189 -804 355 -1058 41 -61 77 -112 82 -112 18 0 3 37
-91 221 -141 277 -201 447 -260 744 -56 278 -64 610 -20 895 81 535 120 705
229 995 122 327 237 528 492 864 64 84 76 105 69 124 -12 31 -6 41 74 137 119
140 226 232 436 376 122 82 132 88 352 194 321 154 386 179 657 253 308 85
510 126 718 148 165 17 496 7 645 -20 336 -60 726 -179 897 -275 41 -23 140
-75 220 -116 172 -87 242 -128 347 -206 43 -31 98 -72 123 -91 147 -108 350
-298 446 -418 164 -203 204 -255 219 -286 9 -19 27 -45 40 -59 50 -55 218
-347 253 -440 8 -19 27 -64 42 -100 85 -192 160 -428 184 -580 62 -387 76
-558 57 -665 -6 -33 -24 -177 -41 -320 -42 -364 -80 -553 -164 -815 -96 -295
-151 -415 -347 -750 -168 -287 -430 -601 -719 -863 -120 -109 -369 -297 -481
-364 -181 -109 -454 -223 -698 -293 -414 -119 -724 -167 -1006 -157 -175 6
-469 49 -635 93 -211 56 -510 164 -655 236 -128 65 -183 100 -270 175 -38 33
-112 88 -163 122 -131 88 -304 225 -458 363 -139 124 -183 172 -256 278 -24
36 -70 101 -100 145 -31 45 -68 105 -83 135 -15 30 -56 98 -90 150 -79 121
-212 386 -280 560 -171 436 -246 854 -232 1290 7 192 12 243 62 552 70 440
253 985 422 1254 27 43 76 122 108 174 116 188 327 452 466 586 82 78 275 230
359 282 151 94 283 170 400 231 69 35 136 72 150 81 60 41 294 139 435 183 77
23 353 94 415 106 369 71 879 64 1250 -19 270 -59 564 -161 780 -269 99 -50
232 -124 295 -166 64 -41 118 -75 121 -75 9 0 123 -88 194 -150 36 -31 92 -77
125 -102 97 -75 276 -242 328 -308 16 -19 50 -57 76 -85 26 -27 66 -75 88
-105 22 -30 53 -68 67 -85 15 -16 34 -43 43 -60 16 -30 58 -89 80 -113 41 -43
85 -106 118 -167 20 -38 50 -88 65 -110 76 -111 206 -409 288 -665 69 -213
129 -477 164 -725 17 -119 17 -678 0 -895 -10 -125 -23 -206 -53 -335 -50
-208 -138 -487 -184 -584 -19 -40 -35 -78 -34 -84 0 -7 3 -5 6 3 4 8 24 39 46
68 51 70 77 128 131 297 144 452 194 803 183 1293 -6 264 -19 369 -86 677
-149 679 -477 1265 -1019 1820 -115 117 -190 183 -345 300 -252 191 -362 260
-622 389 -240 119 -428 187 -735 265 -277 70 -470 91 -865 91 -492 0 -1000
-132 -1523 -397 -101 -51 -216 -113 -256 -137 -274 -167 -315 -197 -521 -377
-151 -133 -203 -188 -352 -376 -125 -159 -218 -304 -327 -514 -158 -302 -330
-928 -385 -1399 -23 -192 -32 -454 -21 -593 12 -162 43 -386 70 -507 85 -384
274 -844 455 -1110 40 -58 86 -133 103 -165 16 -33 52 -88 78 -122 27 -35 74
-95 104 -134 72 -94 368 -403 445 -464 33 -27 82 -68 110 -93 27 -24 92 -73
145 -108 191 -129 240 -162 277 -191 86 -67 546 -279 713 -329 85 -25 405 -93
543 -114 121 -19 167 -22 370 -18 207 4 251 8 407 37 310 57 647 145 784 206
66 29 173 74 236 101 129 54 176 81 305 173 169 120 418 335 591 508 84 84
273 311 362 435 187 259 317 492 420 748 132 329 192 574 237 965 26 230 38
295 55 295 16 0 20 -35 20 -170 0 -299 -31 -490 -144 -905 -46 -167 -211 -525
-341 -740 -156 -258 -211 -338 -290 -426 -27 -30 -84 -93 -125 -140 -205 -232
-469 -478 -630 -588 -107 -73 -295 -181 -397 -227 -242 -111 -544 -208 -808
-259 -424 -81 -415 -80 -720 -80 -267 1 -286 2 -405 28 -69 15 -191 41 -272
57 -221 43 -459 126 -663 230 -93 48 -195 103 -225 122 -30 19 -80 48 -110 63
-50 25 -223 144 -342 234 -203 155 -485 432 -610 601 -35 47 -86 113 -114 148
-28 34 -64 86 -79 115 -15 28 -58 97 -94 152 -81 125 -213 381 -281 545 -69
168 -166 478 -196 623 -62 304 -68 378 -68 727 1 341 3 364 58 687 35 205 86
412 153 623 30 96 66 222 79 279 16 71 36 127 65 180 23 42 66 119 94 171 191
351 457 659 808 938 283 225 718 458 1122 604 137 49 467 133 606 154 231 34
537 39 874 14z m-2258 -61 c125 -47 165 -234 65 -305 -33 -23 -104 -29 -138
-11 -132 69 -152 250 -34 309 40 21 67 22 107 7z m4094 -52 c61 -41 75 -107
39 -182 -25 -52 -37 -67 -84 -99 -69 -46 -149 -32 -194 34 -49 73 -7 210 78
252 50 26 119 23 161 -5z m-4397 -330 c22 -42 15 -87 -12 -87 -21 1 -132 104
-132 124 0 8 15 26 32 41 l32 27 31 -35 c16 -19 38 -51 49 -70z m4603 71 c33
-31 29 -52 -18 -103 -50 -55 -81 -59 -99 -15 -15 36 -8 58 35 108 31 38 50 40
82 10z m308 -121 c85 -47 95 -138 25 -226 -49 -61 -97 -85 -162 -79 -38 4 -57
12 -83 38 -19 19 -37 48 -41 65 -9 48 13 112 54 157 64 71 134 86 207 45z
m-5243 -58 c24 -28 69 -82 100 -119 l57 -67 -21 -23 -21 -23 -45 49 c-24 27
-68 74 -98 104 -46 47 -54 61 -54 93 0 54 29 49 82 -14z m-65 -204 c15 -25 22
-53 21 -75 -3 -31 -6 -35 -35 -38 -38 -4 -79 20 -99 59 -21 42 -17 57 19 79
44 28 68 22 94 -25z m5551 -37 c7 -7 12 -26 12 -44 0 -27 -13 -44 -85 -113
-47 -44 -94 -81 -104 -81 -20 0 -81 51 -81 69 0 12 62 61 77 61 10 0 48 40 95
98 20 24 67 29 86 10z m-5836 -42 c53 -28 137 -109 149 -143 9 -28 7 -41 -14
-87 -14 -30 -37 -62 -51 -71 -102 -67 -284 83 -247 205 27 91 96 131 163 96z
m6092 -218 c14 -19 13 -24 -2 -50 -20 -34 -196 -208 -210 -208 -15 0 -52 55
-52 78 0 11 35 51 88 99 122 111 147 123 176 81z m-6234 -128 c86 -44 96 -120
16 -120 -39 0 -127 104 -111 130 10 16 53 11 95 -10z m-142 -127 c14 -10 39
-36 56 -56 75 -93 -1 -247 -121 -247 -98 0 -183 78 -183 168 0 49 46 122 91
145 43 22 120 17 157 -10z m6562 -8 c46 -24 93 -100 98 -160 4 -44 0 -55 -22
-82 -36 -43 -120 -83 -173 -83 -105 0 -189 156 -133 247 33 55 95 93 152 93
27 0 62 -7 78 -15z m-6738 -366 c27 -7 40 -17 44 -34 20 -80 -105 -103 -149
-28 -36 62 10 89 105 62z m7038 -116 c62 -52 119 -167 97 -197 -20 -27 -169
-115 -206 -122 -33 -7 -38 -4 -88 49 -73 79 -90 144 -53 205 53 86 185 121
250 65z m-7246 -76 c39 -29 92 -68 118 -86 42 -30 45 -35 37 -60 -24 -66 -31
-67 -104 -11 -37 28 -94 64 -126 81 -32 16 -59 34 -59 40 0 18 43 89 53 89 5
0 41 -24 81 -53z m-27 -267 c35 -21 52 -63 36 -89 -16 -26 -94 -26 -126 -1
-29 23 -37 76 -15 98 18 18 69 14 105 -8z m7387 -51 c35 -28 33 -51 -9 -88
-48 -42 -86 -41 -116 0 -21 29 -21 34 -8 58 13 23 62 49 95 50 6 1 23 -8 38
-20z m-7529 -125 c92 -49 135 -83 135 -108 0 -33 -9 -37 -44 -19 -62 32 -176
114 -176 127 0 33 21 33 85 0z m7549 -80 c-21 -18 -64 -45 -96 -60 -50 -24
-61 -26 -68 -14 -6 8 -10 18 -10 23 0 15 42 42 122 79 72 32 83 35 87 20 2
-10 -12 -29 -35 -48z m-7689 -34 c3 -5 42 -28 87 -52 87 -45 138 -83 138 -101
0 -7 -9 -27 -21 -46 l-21 -34 -24 30 c-30 38 -107 88 -168 109 -51 18 -59 40
-30 82 16 24 29 28 39 12z m7855 -39 c19 -36 13 -61 -15 -61 -14 0 -54 -12
-90 -26 l-65 -26 0 -50 c0 -47 -22 -108 -39 -108 -5 0 -20 9 -34 20 -31 25
-47 75 -40 127 5 37 7 39 117 90 121 57 150 63 166 34z m-7791 -379 c53 -39
66 -69 66 -147 0 -82 -14 -111 -76 -153 -70 -49 -212 -6 -245 73 -38 92 14
217 102 245 41 13 125 4 153 -18z m7825 5 c66 -37 81 -67 81 -157 0 -74 -2
-81 -30 -110 -42 -44 -76 -60 -131 -60 -88 0 -154 58 -169 146 -23 142 127
251 249 181z m-7894 -485 c25 -32 25 -53 -1 -86 -22 -27 -50 -33 -93 -16 -39
14 -50 44 -31 84 28 58 87 67 125 18z m7905 12 c32 -34 32 -68 0 -99 -49 -50
-115 -17 -115 56 0 67 69 92 115 43z m-7820 -246 l0 -33 -147 -3 -148 -3 0 39
0 38 148 -2 147 -3 0 -33z m7933 6 c2 -17 -3 -36 -10 -42 -15 -12 -258 -19
-276 -8 -12 7 -17 68 -7 77 2 3 69 5 147 5 l143 -1 3 -31z m-7948 -198 c0 -38
2 -37 -140 -52 -36 -3 -77 -13 -93 -21 -33 -17 -40 -6 -35 53 l3 39 85 6 c47
3 106 6 133 7 l47 2 0 -34z m7930 -17 l0 -42 -97 7 c-87 5 -102 4 -130 -13
l-31 -20 -4 47 c-3 26 -3 50 -1 55 2 4 62 7 134 7 l129 0 0 -41z m-128 -121
c22 -6 47 -22 56 -36 14 -21 14 -26 -1 -58 -24 -49 -55 -61 -102 -39 -20 10
-44 29 -52 42 -16 24 -20 73 -8 93 8 13 59 13 107 -2z m-7808 -34 c9 -8 16
-27 16 -41 0 -34 -69 -103 -103 -103 -34 0 -67 43 -67 86 0 28 6 38 33 54 39
24 100 26 121 4z m7904 -287 c21 -17 11 -61 -16 -65 -22 -3 -225 70 -249 90
-17 13 -17 55 -1 60 15 5 247 -69 266 -85z m-7954 -9 c30 -13 52 -44 72 -101
43 -122 15 -144 -41 -34 -25 49 -51 77 -73 78 -9 0 -38 0 -64 -1 -45 -1 -48 0
-48 23 0 20 7 27 38 35 52 14 87 14 116 0z m7733 -98 c29 -11 74 -24 100 -30
99 -21 93 -17 93 -60 0 -52 -11 -52 -155 -1 -91 32 -111 43 -113 61 -4 25 4
50 15 50 4 0 32 -9 60 -20z m-4 -187 c53 -29 67 -45 67 -73 0 -37 -17 -50 -66
-50 -59 0 -87 25 -87 77 0 22 3 46 7 52 10 16 43 14 79 -6z m-7585 -49 c44
-50 15 -104 -65 -119 -33 -6 -40 -3 -60 20 -16 18 -23 39 -23 66 0 35 4 42 33
54 42 19 86 11 115 -21z m7599 -200 c55 -26 103 -74 103 -102 0 -67 -64 -151
-127 -167 -62 -15 -183 58 -199 119 -11 44 14 136 45 167 26 25 31 26 77 18
27 -5 72 -21 101 -35z m-7615 -53 c12 -16 36 -48 52 -70 24 -32 34 -40 50 -35
44 14 51 10 51 -26 0 -33 -4 -37 -55 -61 -82 -40 -152 -61 -163 -50 -16 16 0
40 38 58 19 9 35 21 35 26 0 5 -10 27 -22 49 -22 39 -22 39 -71 33 -47 -7 -49
-6 -45 16 3 21 78 89 98 89 4 0 19 -13 32 -29z m253 -431 c33 -12 71 -54 97
-104 50 -98 -17 -213 -129 -223 -60 -6 -120 21 -154 69 -31 43 -38 132 -14
182 32 67 127 104 200 76z m7172 -12 c73 -50 92 -152 41 -224 -61 -85 -139
-103 -218 -50 -104 69 -102 212 4 277 45 27 130 26 173 -3z m-284 -312 c19
-13 44 -27 56 -31 11 -3 30 -18 41 -32 19 -24 19 -27 4 -45 -22 -23 -37 -23
-104 3 -61 23 -70 32 -70 71 0 63 18 71 73 34z m-6604 -130 l43 -43 -62 -54
c-33 -30 -79 -78 -102 -106 -22 -29 -44 -53 -49 -53 -12 0 -51 92 -42 100 5 3
32 26 61 49 55 45 73 81 52 106 -10 12 -10 18 0 30 22 26 54 17 99 -29z m6593
-92 c58 -41 82 -76 80 -120 -2 -40 -41 -107 -78 -131 -28 -18 -86 -27 -119
-19 -36 9 -115 84 -132 124 -13 31 -12 38 7 78 12 24 38 58 58 75 33 27 42 30
90 26 38 -3 64 -12 94 -33z m-6440 -166 c28 -22 88 -107 88 -125 0 -22 -29
-53 -50 -53 -9 0 -31 -16 -50 -35 -19 -19 -41 -35 -50 -35 -26 0 -94 66 -87
84 4 9 27 30 52 48 42 30 45 34 39 65 -3 18 -4 40 0 48 7 18 36 20 58 3z
m6216 -154 c25 -17 31 -71 8 -80 -24 -9 -95 16 -106 37 -6 11 -8 29 -5 39 8
25 70 27 103 4z m-155 -100 c102 -52 144 -149 102 -237 -23 -49 -47 -68 -94
-74 -53 -7 -118 17 -164 62 -64 63 -72 144 -20 206 48 56 116 73 176 43z
m-5775 -56 c35 -22 76 -93 68 -120 -2 -7 -7 -25 -10 -41 -8 -33 -68 -102 -107
-123 -45 -23 -110 -18 -149 11 -45 34 -59 60 -60 116 0 58 28 102 94 147 59
39 112 42 164 10z m200 -246 c18 -23 15 -53 -10 -79 -28 -30 -52 -29 -77 3
-26 33 -27 56 -3 76 33 30 65 30 90 0z m5363 2 c26 -13 30 -20 27 -52 -3 -32
-7 -37 -32 -40 -36 -4 -76 31 -76 68 0 15 3 30 7 33 11 12 42 8 74 -9z m-138
-111 c106 -75 115 -234 16 -286 -47 -25 -129 -17 -174 17 -88 68 -108 183 -42
255 53 57 132 63 200 14z m-5036 -14 c47 -17 83 -59 83 -94 0 -69 -45 -150
-104 -186 -38 -23 -124 -25 -165 -5 -86 45 -81 161 10 239 61 52 119 68 176
46z m4723 -257 c46 -45 50 -69 16 -101 -31 -29 -56 -22 -96 27 -35 43 -38 64
-10 92 28 28 44 25 90 -18z m-4502 6 c26 -26 14 -77 -27 -121 -40 -42 -40 -42
-60 -22 -39 40 -28 105 22 136 37 22 49 23 65 7z m4272 -97 c50 -36 83 -97 88
-159 5 -72 -13 -113 -62 -136 -63 -30 -114 -17 -172 46 -61 64 -80 141 -52
202 30 67 136 93 198 47z m-3962 -21 c48 -29 68 -82 53 -140 -24 -91 -101
-170 -165 -170 -67 0 -146 70 -146 129 0 59 64 156 125 189 32 18 97 14 133
-8z m3676 -201 c31 -25 33 -48 6 -77 -26 -28 -50 -28 -84 -1 -30 23 -33 45
-10 77 19 28 53 28 88 1z m-3473 -19 c13 -7 19 -21 19 -43 0 -46 -25 -77 -60
-77 -51 0 -68 65 -28 107 24 25 39 28 69 13z m3251 -16 c50 -26 100 -115 101
-182 0 -40 -4 -49 -36 -79 -99 -90 -257 6 -257 156 0 60 25 95 85 116 41 14
61 12 107 -11z m-3014 -16 c21 -21 13 -51 -38 -138 -28 -47 -53 -100 -56 -117
-7 -39 -29 -43 -68 -12 -33 26 -31 34 36 150 70 123 96 147 126 117z m2713
-157 c36 -36 36 -51 3 -90 -37 -45 -61 -40 -85 15 l-21 46 28 29 c15 16 32 29
37 29 5 0 22 -13 38 -29z m-239 -93 c48 -97 77 -182 66 -193 -3 -3 -21 -8 -40
-12 -32 -5 -36 -3 -42 23 -13 51 -68 174 -77 174 -5 0 -21 -7 -34 -16 -27 -18
-45 -12 -45 15 0 27 84 114 107 109 12 -2 34 -37 65 -100z m-2248 70 c9 -12
16 -32 16 -44 0 -23 -52 -74 -74 -74 -18 0 -42 30 -50 63 -14 58 75 103 108
55z m301 8 c68 -29 92 -109 55 -193 -39 -90 -101 -129 -180 -112 -85 19 -111
140 -54 250 31 61 108 84 179 55z m1419 -106 c85 -75 76 -238 -14 -285 -75
-39 -157 5 -185 97 -30 103 -12 162 60 198 58 29 98 26 139 -10z m-950 -34
c20 -42 22 -189 3 -226 -16 -31 -68 -38 -122 -16 -41 18 -39 36 5 36 38 0 58
30 60 90 3 75 1 88 -16 94 -31 12 -53 -5 -79 -60 -14 -29 -30 -54 -35 -54 -15
0 -40 43 -40 70 0 15 6 35 14 45 18 24 99 53 152 54 38 1 43 -2 58 -33z m1186
-1 c20 -21 22 -30 14 -52 -5 -14 -21 -35 -36 -46 l-28 -21 -25 24 c-29 27 -31
49 -10 90 19 38 53 39 85 5z m-763 7 c21 -13 30 -55 32 -143 2 -92 -10 -135
-41 -144 -24 -8 -56 3 -67 23 -7 14 -16 193 -12 240 2 23 64 40 88 24z m258
-113 c0 -42 -1 -44 -30 -44 -22 0 -33 7 -42 25 -23 49 4 86 52 70 16 -6 20
-16 20 -51z m-457 35 c24 -17 30 -62 10 -82 -19 -19 -66 -15 -78 7 -11 22 -14
74 -3 84 11 12 48 7 71 -9z"/>
<path d="M5534 10593 c-19 -45 -12 -93 21 -130 19 -23 27 -26 42 -17 25 15 45
80 37 121 -8 42 -28 63 -60 63 -19 0 -29 -8 -40 -37z"/>
<path d="M6112 10631 c-29 -18 -42 -123 -22 -175 12 -32 54 -36 70 -7 11 21
13 122 4 158 -6 22 -34 35 -52 24z"/>
<path d="M5665 10023 c-336 -31 -650 -108 -1035 -253 -47 -18 -91 -34 -99 -37
-8 -2 -11 -6 -8 -9 11 -11 223 39 332 78 179 64 470 134 660 158 206 26 504
37 595 22 262 -43 489 -87 570 -112 52 -15 115 -33 140 -40 44 -10 109 -34
141 -50 9 -5 36 -14 60 -20 24 -6 52 -13 62 -16 10 -3 17 0 17 8 0 18 -203
100 -327 133 -51 13 -109 32 -130 40 -58 24 -99 32 -362 70 -209 30 -267 35
-410 33 -91 -1 -184 -3 -206 -5z"/>
<path d="M5585 9794 c-217 -26 -646 -129 -826 -198 -35 -13 -94 -36 -131 -50
-37 -14 -106 -44 -155 -67 -48 -22 -99 -45 -112 -50 -51 -20 -231 -126 -356
-210 -71 -48 -202 -147 -290 -221 -88 -73 -172 -141 -187 -151 -36 -23 -35
-46 2 -82 17 -16 30 -37 30 -46 0 -10 -42 -62 -92 -117 -207 -221 -412 -582
-541 -952 -145 -416 -251 -1040 -233 -1365 18 -308 56 -511 142 -750 60 -167
88 -228 164 -361 157 -273 279 -436 468 -627 286 -290 483 -426 822 -567 240
-100 375 -140 685 -201 185 -36 450 -35 738 2 121 16 480 98 602 138 250 81
443 172 625 294 41 27 116 77 165 110 144 97 221 164 478 420 254 253 383 408
524 630 186 294 337 666 403 992 65 317 74 517 35 777 -8 57 -14 117 -14 133
1 17 -2 40 -6 53 -4 13 -3 22 3 22 13 0 24 -47 17 -73 -6 -22 -6 -22 10 -3 9
12 13 29 9 40 -10 33 -33 66 -45 63 -9 -2 -81 206 -76 222 0 3 -4 15 -10 26
-6 11 -13 36 -16 55 -2 19 -2 27 0 18 2 -10 9 -18 14 -18 9 0 13 21 11 53 -1
10 3 15 8 12 6 -3 10 -14 10 -24 0 -9 4 -21 9 -26 10 -13 33 -84 66 -210 76
-292 100 -490 93 -763 -4 -147 -10 -190 -46 -362 -117 -559 -363 -1038 -787
-1530 -48 -56 -376 -391 -420 -428 -53 -46 -246 -190 -315 -236 -30 -19 -73
-49 -95 -64 -138 -99 -492 -244 -773 -316 -316 -81 -486 -106 -767 -113 -306
-8 -408 3 -682 72 -217 55 -298 82 -466 157 -49 22 -91 38 -93 35 -16 -16 316
-169 446 -206 482 -136 621 -154 983 -128 261 19 459 54 745 133 250 69 393
129 622 262 243 142 573 437 886 791 162 184 288 352 362 483 11 18 45 78 77
133 70 120 206 425 265 590 24 66 65 207 91 313 56 221 74 372 65 552 -3 70
-2 105 3 90 6 -18 9 -20 10 -7 1 10 -6 28 -14 41 -8 12 -14 38 -13 57 1 19 -6
75 -15 124 -16 83 -16 91 -1 102 10 7 14 19 10 28 -3 9 1 23 9 31 8 9 15 12
15 7 0 -4 5 -35 10 -68 6 -33 18 -100 26 -150 21 -124 30 -509 15 -617 -28
-195 -122 -507 -213 -713 -20 -44 -56 -125 -81 -181 -74 -168 -273 -520 -355
-629 -25 -33 -71 -89 -102 -125 -31 -36 -84 -101 -119 -145 -102 -130 -301
-342 -431 -460 -41 -38 -97 -89 -125 -115 -92 -85 -194 -156 -358 -248 -169
-95 -239 -125 -422 -185 -486 -159 -870 -217 -1236 -188 -310 25 -637 101
-879 206 -259 112 -436 211 -550 307 -40 33 -129 106 -199 161 -69 56 -151
125 -181 154 -30 28 -56 50 -58 48 -7 -7 48 -82 89 -121 41 -38 146 -128 272
-232 107 -89 207 -153 355 -226 83 -42 155 -76 158 -76 4 0 47 -19 98 -41 218
-99 506 -183 771 -224 257 -41 527 -37 795 11 119 21 458 107 560 142 221 76
515 215 627 297 35 24 86 59 115 76 60 36 403 371 510 497 39 46 80 88 92 93
38 18 200 236 352 477 129 203 209 358 310 601 82 196 77 188 94 157 11 -22
11 -35 -3 -89 -36 -147 -223 -563 -314 -698 -27 -41 -73 -114 -102 -164 -30
-49 -88 -132 -130 -184 -42 -52 -93 -117 -115 -145 -21 -28 -80 -94 -130 -146
-50 -52 -122 -130 -161 -173 -71 -80 -234 -227 -340 -308 -133 -100 -351 -221
-490 -272 -39 -13 -111 -43 -160 -66 -97 -43 -281 -99 -417 -126 -46 -9 -130
-27 -188 -40 -58 -13 -179 -31 -270 -41 -310 -32 -696 8 -1030 108 -191 57
-404 139 -555 214 -63 32 -67 33 -42 10 84 -77 380 -210 623 -281 409 -119
770 -150 1154 -100 134 18 529 114 670 163 168 58 386 153 450 196 36 23 100
62 142 86 159 89 533 427 742 670 101 117 238 295 290 375 21 33 61 94 89 135
85 127 224 418 301 630 62 172 131 450 151 610 3 30 14 105 23 165 23 158 23
585 -2 750 -34 233 -83 431 -159 645 -17 47 -34 89 -39 95 -4 5 -8 15 -8 23 0
17 -117 252 -155 313 -15 22 -24 47 -21 54 3 10 0 12 -12 8 -9 -3 -14 -3 -11
1 4 4 -4 19 -17 33 -32 35 -66 93 -53 93 6 0 7 5 4 10 -4 6 -10 8 -15 5 -10
-6 -90 95 -90 113 0 7 -4 12 -10 12 -5 0 -10 10 -11 23 0 12 -3 16 -6 9 -8
-20 -43 36 -43 68 0 17 -3 21 -11 13 -8 -8 -19 -2 -40 22 -32 37 -42 78 -12
54 14 -12 16 -12 12 0 -8 24 -38 38 -48 23 -5 -9 -29 7 -86 55 -87 75 -173
143 -181 143 -2 0 -10 4 -17 10 -56 45 -70 59 -59 60 6 0 12 5 12 11 0 6 -9 9
-20 6 -14 -3 -24 1 -31 14 -6 11 -22 25 -37 31 -15 6 -22 12 -14 15 6 3 12 9
12 15 0 7 -5 6 -14 -1 -11 -9 -22 -8 -47 7 -19 10 -54 24 -79 31 -42 13 -103
50 -84 52 5 1 -2 4 -16 8 -16 4 -26 15 -28 30 -3 22 -1 23 29 17 18 -3 36 -11
39 -16 4 -6 14 -8 23 -4 22 8 159 -76 152 -93 -2 -7 3 -13 11 -13 18 0 86 -39
129 -75 26 -22 28 -27 18 -44 -8 -13 -9 -22 -3 -26 13 -8 32 4 25 16 -4 5 -1
9 4 9 6 0 16 -9 23 -20 7 -11 19 -20 27 -20 11 0 11 -3 1 -16 -8 -8 -9 -14 -4
-13 35 6 66 -3 71 -22 3 -11 11 -18 19 -15 8 3 11 0 7 -11 -5 -12 -1 -14 13
-9 32 10 230 -201 372 -393 114 -156 225 -329 256 -401 18 -43 52 -119 99
-225 20 -44 43 -106 51 -137 8 -31 19 -66 25 -76 35 -65 112 -428 131 -617 26
-252 1 -730 -55 -1025 -37 -200 -109 -447 -173 -595 -19 -44 -49 -115 -67
-158 -59 -137 -239 -441 -349 -587 -40 -52 -105 -140 -146 -194 -109 -144
-366 -398 -565 -557 -378 -303 -698 -453 -1256 -590 -476 -116 -860 -113
-1369 12 -256 63 -356 101 -617 231 -250 124 -286 148 -366 253 -16 20 -61 60
-100 89 -40 29 -107 83 -150 120 -43 36 -83 66 -90 66 -19 0 103 -118 176
-170 37 -26 114 -92 170 -147 120 -115 141 -131 344 -247 196 -113 296 -156
506 -215 516 -146 789 -171 1212 -111 116 16 251 40 300 54 234 62 427 118
500 145 181 67 493 242 720 405 54 39 273 222 305 256 3 3 43 41 90 85 89 85
220 229 260 286 13 19 70 93 125 164 154 196 315 475 417 720 129 309 222 704
264 1125 20 195 14 541 -11 710 -35 234 -106 495 -200 735 -41 106 -66 157
-175 360 -41 75 -133 212 -197 290 -64 79 -127 151 -188 215 -39 41 -107 113
-151 158 -155 164 -446 370 -729 515 -130 67 -327 157 -376 171 -28 9 -107 38
-177 66 -189 75 -422 138 -592 160 -175 24 -466 25 -645 4z m534 -44 c158 -10
280 -28 262 -39 -12 -8 26 -24 89 -39 l45 -11 -55 5 c-122 11 -612 23 -715 18
-201 -10 -465 -55 -640 -109 -60 -19 -129 -39 -152 -45 -241 -61 -744 -317
-943 -479 -25 -20 -79 -62 -120 -93 -42 -31 -111 -89 -154 -129 -82 -76 -99
-81 -117 -32 -7 18 4 33 64 92 225 218 568 435 932 589 150 64 227 92 315 116
30 8 96 26 145 40 209 58 535 111 740 119 39 2 88 4 110 5 22 1 109 -3 194 -8z
m271 -150 c69 -6 145 -15 170 -21 62 -13 180 -71 175 -86 -2 -7 8 -11 28 -11
18 1 42 -3 54 -7 19 -6 24 -2 32 18 10 27 22 27 86 1 23 -9 81 -66 77 -76 -1
-5 3 -8 8 -8 6 0 10 4 10 9 0 4 19 5 43 0 23 -4 45 -8 50 -9 4 0 7 -8 7 -19 0
-10 7 -24 15 -31 10 -9 15 -9 15 -1 0 6 7 11 16 11 11 0 14 -6 9 -22 -6 -16
-4 -20 8 -15 11 4 14 2 10 -9 -7 -19 26 -19 63 1 40 21 52 19 85 -14 22 -23
28 -37 26 -63 -3 -30 -6 -33 -34 -32 -17 1 -41 11 -53 22 -12 11 -34 23 -48
27 -15 4 -34 12 -42 19 -8 7 -53 28 -99 46 -49 20 -86 40 -88 50 -6 24 -42 43
-57 31 -14 -12 -104 8 -160 34 -17 8 -110 34 -206 58 -137 35 -210 47 -336 57
-220 18 -612 8 -744 -19 -212 -43 -341 -74 -465 -113 -365 -114 -553 -203
-810 -383 -27 -19 -58 -35 -67 -35 -10 0 -18 -4 -18 -8 0 -4 -13 -16 -30 -25
-56 -33 -336 -290 -438 -402 -110 -121 -304 -418 -429 -660 -130 -251 -156
-312 -239 -560 -44 -131 -70 -196 -85 -208 -32 -26 -39 -10 -24 53 7 30 20 89
29 130 27 119 189 545 263 695 89 178 341 522 484 662 122 118 343 303 415
345 30 17 40 19 55 10 17 -11 19 -9 19 13 0 22 9 30 53 51 28 13 88 49 132 80
194 134 528 261 960 363 67 16 302 51 435 65 66 7 515 -3 640 -14z m-192 -126
c42 -8 85 -17 94 -20 10 -3 19 3 23 16 7 22 35 28 35 6 0 -14 67 -46 95 -46
22 0 18 -27 -7 -44 -41 -29 -85 -20 -129 24 -22 22 -50 40 -62 41 -12 0 -33 2
-47 4 -60 9 -180 12 -180 5 0 -4 -62 -11 -137 -14 -303 -16 -504 -49 -748
-126 -55 -17 -129 -40 -165 -51 -86 -27 -316 -127 -438 -191 -53 -28 -144 -84
-202 -125 -58 -40 -134 -93 -170 -117 -36 -24 -76 -54 -90 -66 -14 -12 -52
-45 -84 -73 -89 -79 -136 -105 -136 -78 0 18 135 153 203 202 40 29 79 59 87
68 30 30 282 191 382 244 164 87 404 182 578 227 36 9 127 34 202 54 204 55
355 73 606 75 157 1 233 -3 290 -15z m240 -336 c121 -39 238 -156 282 -283 10
-27 22 -49 26 -47 5 1 47 16 94 32 232 81 454 -4 578 -221 18 -32 40 -87 49
-123 16 -65 17 -66 49 -66 50 0 174 -28 220 -50 51 -25 184 -161 213 -218 39
-76 54 -157 47 -252 l-7 -85 48 -30 c87 -55 167 -143 207 -229 53 -112 62
-168 46 -271 -11 -74 -11 -89 4 -132 99 -286 117 -378 98 -513 -14 -98 -37
-154 -88 -209 -45 -50 -73 -66 -136 -75 -44 -7 -47 -10 -74 -61 -30 -61 -82
-94 -157 -102 -23 -2 -497 -5 -1052 -6 -940 -2 -1013 -3 -1037 -19 -26 -17
-87 -86 -198 -222 -92 -114 -235 -201 -378 -231 -120 -25 -286 10 -405 87
-117 75 -228 235 -261 378 -31 129 -13 344 37 452 73 160 289 373 430 425 115
42 129 42 849 44 l693 2 30 31 c40 43 79 123 79 163 0 20 -12 49 -32 77 -51
71 -41 126 24 126 101 0 134 -52 134 -211 0 -133 -19 -177 -118 -271 l-70 -68
-709 0 c-773 0 -769 0 -877 -58 -60 -32 -200 -170 -251 -247 -129 -193 -120
-469 20 -633 48 -55 142 -119 214 -144 46 -17 72 -19 148 -15 79 5 103 11 165
40 92 45 180 124 273 247 78 103 121 145 170 166 23 9 254 13 1000 16 1095 4
1006 -3 1066 85 18 26 48 64 66 84 22 25 40 60 52 104 21 75 45 106 108 136
43 21 88 22 137 3 12 -5 16 0 16 22 0 34 -46 207 -84 314 -14 41 -28 92 -31
112 -5 33 -10 39 -43 48 -20 5 -60 10 -89 10 -64 0 -145 17 -169 35 -18 13
-15 15 31 36 42 19 67 23 150 22 55 0 109 -2 120 -4 18 -4 20 1 19 48 -1 30
-11 71 -24 97 -24 50 -182 214 -243 253 -21 13 -46 32 -57 43 -19 19 -19 20 1
77 42 119 5 250 -96 340 -64 59 -99 73 -178 73 -109 0 -152 -19 -255 -115 -64
-59 -100 -85 -117 -85 -24 0 -25 3 -25 60 0 73 13 100 75 160 55 52 75 93 75
152 0 86 -88 206 -187 254 -44 22 -71 28 -122 28 -102 1 -152 -28 -311 -177
-154 -146 -184 -164 -235 -146 -25 9 -35 19 -35 34 0 11 31 63 70 115 113 154
120 181 70 285 -55 116 -153 179 -275 179 -84 -1 -134 -23 -188 -83 -63 -70
-71 -120 -61 -366 9 -211 6 -810 -5 -1175 l-6 -195 -65 0 -65 0 0 310 c0 171
2 452 5 625 3 173 1 389 -4 480 -16 303 28 416 203 509 103 54 201 60 329 19z
m-903 6 c33 -8 79 -26 102 -39 57 -34 127 -106 152 -158 28 -58 44 -192 36
-301 l-7 -88 -42 6 c-22 4 -47 13 -54 20 -8 8 -20 65 -28 132 -8 66 -20 131
-25 146 -17 42 -95 115 -143 133 -60 23 -195 17 -251 -10 -55 -27 -114 -90
-142 -153 -26 -58 -28 -59 -103 -24 -43 21 -48 46 -22 104 41 92 157 189 276
230 64 22 172 23 251 2z m876 -291 c79 -83 77 -164 -7 -253 l-44 -47 0 -661
c0 -405 -4 -671 -10 -686 -9 -24 -14 -26 -70 -26 l-60 0 0 686 0 686 -32 31
c-34 34 -67 100 -68 132 0 40 22 96 50 129 43 49 86 67 144 63 44 -4 55 -10
97 -54z m-933 26 c45 -22 86 -73 98 -122 12 -50 -15 -117 -70 -172 l-51 -50
-3 -520 c-1 -286 0 -529 2 -541 3 -11 35 -51 70 -89 78 -81 101 -124 88 -163
-15 -46 -52 -41 -115 15 -100 88 -159 136 -216 174 -74 49 -184 151 -209 192
-11 18 -23 53 -26 79 l-7 46 -121 78 c-151 98 -309 196 -368 228 -60 32 -178
142 -223 208 -54 78 -74 168 -58 259 18 95 62 180 135 254 86 87 143 109 296
109 107 1 122 -1 209 -33 51 -19 106 -45 120 -57 15 -13 49 -65 75 -116 26
-51 67 -117 89 -147 63 -80 77 -104 77 -129 0 -33 -22 -37 -74 -13 -53 23
-120 88 -208 203 -88 112 -168 158 -278 158 -78 0 -141 -24 -198 -75 -71 -64
-107 -135 -106 -210 1 -76 19 -116 80 -184 55 -61 246 -191 339 -230 64 -28
100 -49 179 -106 26 -19 53 -35 58 -35 7 0 8 19 4 53 -3 28 -6 64 -6 78 0 19
-10 31 -39 47 -22 12 -63 50 -92 85 -29 34 -71 81 -93 105 l-41 42 -57 -6
c-31 -4 -68 -4 -82 0 -59 15 -126 103 -126 166 0 70 55 150 118 171 35 12 94
7 135 -12 38 -17 76 -85 83 -150 l6 -58 115 -98 c100 -86 132 -110 206 -158
13 -8 14 -22 7 -90 -5 -44 -9 -154 -9 -243 l-1 -164 56 -54 c31 -30 61 -54 65
-54 5 0 9 227 9 504 0 496 0 505 -20 511 -28 9 -70 68 -80 111 -5 23 -4 54 4
85 31 118 144 171 254 118z m2430 -219 c-14 -4 -31 -11 -36 -14 -5 -3 -15 1
-22 9 -11 13 -6 15 36 14 41 -1 45 -2 22 -9z m108 -12 c19 -23 19 -23 -1 -6
-11 9 -31 18 -45 21 l-25 4 26 2 c16 0 33 -8 45 -21z m-918 -40 c38 -35 64
-101 56 -142 -6 -34 -21 -54 -58 -80 -18 -12 -19 -20 -9 -162 6 -96 7 -156 0
-169 -5 -11 -77 -90 -161 -175 -83 -85 -188 -196 -232 -247 l-82 -91 -7 -159
c-3 -87 -8 -163 -10 -169 -4 -15 -104 -29 -115 -18 -5 5 -10 95 -11 199 l-3
191 58 73 c32 40 136 150 231 244 94 95 179 183 188 197 13 21 15 46 10 146
-6 118 -6 120 -34 136 -36 21 -60 58 -66 107 -16 118 155 201 245 119z m779
-70 c9 -10 26 -18 37 -18 30 0 52 -15 36 -25 -16 -10 -82 4 -102 22 -18 17
-23 57 -11 89 5 15 9 11 16 -16 5 -19 16 -43 24 -52z m232 -10 c-10 -7 -8 -8
7 -4 38 11 228 -252 219 -303 -3 -15 2 -32 12 -43 9 -10 14 -21 11 -24 -7 -7
-124 149 -133 177 -12 36 -102 155 -151 197 -39 35 -54 68 -39 84 3 3 24 -13
46 -35 33 -31 39 -41 28 -49z m-2343 -103 c60 -35 89 -86 88 -156 -1 -64 -39
-143 -74 -154 -20 -6 -20 -15 -20 -445 0 -241 -3 -445 -6 -454 -5 -12 -20 -16
-63 -16 l-58 0 -1 452 -1 452 -24 14 c-42 26 -71 79 -74 140 -5 71 15 114 75
159 54 41 98 43 158 8z m-1576 -71 l0 -53 -60 -22 c-57 -21 -71 -39 -29 -39
26 0 96 -72 103 -108 5 -20 0 -45 -17 -83 -37 -83 -87 -119 -164 -119 -29 0
-44 8 -78 43 -35 35 -44 52 -54 105 -7 34 -14 62 -15 62 -11 0 -38 -57 -45
-95 -9 -50 3 -144 24 -184 20 -39 89 -105 140 -135 l44 -26 424 0 c405 0 425
-1 441 -19 28 -31 17 -63 -29 -86 -38 -19 -64 -20 -454 -23 l-414 -4 -74 27
c-67 25 -84 27 -166 23 -102 -6 -148 -21 -191 -64 -39 -40 -63 -96 -77 -185
-19 -122 -8 -195 50 -318 27 -58 55 -124 61 -146 31 -99 122 -241 189 -294 52
-41 155 -87 239 -107 73 -18 325 -25 400 -11 l42 7 0 -42 c0 -102 -22 -112
-240 -111 -332 0 -512 88 -681 336 -109 159 -192 356 -210 503 -10 86 -10 112
5 199 38 228 147 356 330 391 32 6 37 10 32 28 -33 114 -39 163 -28 238 19
131 82 230 192 302 73 49 110 63 214 81 86 15 96 8 96 -71z m2549 -2 c51 -38
66 -69 66 -140 0 -56 -4 -74 -28 -110 -15 -24 -43 -52 -61 -63 -30 -18 -34
-25 -40 -78 -8 -70 -32 -105 -82 -121 -48 -16 -54 -6 -54 100 0 81 -1 85 -31
116 -41 43 -61 117 -47 173 14 53 72 118 123 137 49 17 120 11 154 -14z m971
-172 c152 -77 97 -300 -73 -300 -50 0 -52 1 -121 74 l-71 73 -70 7 c-89 9
-105 18 -74 40 16 11 45 16 90 16 63 0 69 2 118 41 51 41 108 68 144 69 10 0
35 -9 57 -20z m-3321 -130 c39 -11 86 -52 108 -94 69 -132 -114 -286 -239
-201 -82 56 -98 170 -34 243 49 56 98 71 165 52z m3040 -99 c65 -34 117 -127
106 -193 -6 -36 -29 -66 -94 -120 -19 -16 -21 -29 -21 -121 0 -100 -1 -103
-34 -152 -44 -65 -340 -371 -378 -391 -35 -18 -148 -10 -148 11 0 7 27 50 59
96 l60 83 -5 101 c-8 173 -5 164 -73 231 -60 60 -61 61 -61 117 0 48 4 61 30
91 38 43 86 60 156 54 69 -6 99 -33 120 -106 20 -68 14 -116 -20 -166 -23 -35
-26 -48 -26 -133 l0 -93 25 16 c14 9 57 53 95 97 l70 80 0 98 c0 96 0 98 -29
118 -56 40 -77 132 -47 204 7 18 30 47 50 65 30 26 45 32 82 32 25 0 62 -9 83
-19z m995 -197 c3 -8 2 -12 -4 -9 -6 3 -10 10 -10 16 0 14 7 11 14 -7z m141 6
c3 -5 1 -10 -4 -10 -6 0 -11 5 -11 10 0 6 2 10 4 10 3 0 8 -4 11 -10z m-738
-41 c82 -31 135 -142 112 -232 -20 -80 -92 -137 -174 -137 -49 0 -52 -2 -120
-71 -102 -102 -122 -113 -199 -104 -59 6 -63 8 -58 28 2 12 56 72 118 133 63
61 114 114 114 118 0 4 -7 21 -16 38 -11 21 -15 47 -12 80 11 112 131 187 235
147z m-4000 -210 c15 -5 40 -22 55 -36 l27 -26 453 -1 c249 -1 460 -5 469 -9
11 -5 19 -1 28 17 18 32 51 46 112 46 69 0 102 -20 140 -86 24 -43 32 -68 32
-108 0 -98 -8 -113 -69 -136 -114 -42 -197 -13 -270 95 l-39 56 -179 -5 c-99
-3 -286 -6 -416 -6 l-236 0 -17 -39 c-36 -80 -137 -119 -222 -86 -132 50 -147
229 -26 311 39 26 108 32 158 13z m4890 -151 c-3 -8 -6 -5 -6 6 -1 11 2 17 5
13 3 -3 4 -12 1 -19z m-20 -20 c-3 -7 -5 -2 -5 12 0 14 2 19 5 13 2 -7 2 -19
0 -25z m-30 0 c-3 -8 -6 -5 -6 6 -1 11 2 17 5 13 3 -3 4 -12 1 -19z m10 -40
c-3 -8 -6 -5 -6 6 -1 11 2 17 5 13 3 -3 4 -12 1 -19z m-4007 -78 c20 -5 53
-28 74 -49 34 -35 40 -48 44 -95 13 -159 -170 -249 -275 -134 -11 12 -29 40
-40 61 l-18 38 -253 4 c-145 1 -258 7 -264 13 -5 5 -11 25 -14 45 -8 65 3 67
299 67 243 0 261 1 287 20 56 40 97 48 160 30z m3322 -86 c49 -25 81 -80 86
-145 2 -32 2 -69 -2 -82 -7 -31 -73 -95 -113 -112 -26 -11 -33 -20 -33 -42 -1
-41 -250 -277 -310 -293 -51 -14 -313 -16 -1315 -12 -407 2 -745 3 -752 2 -17
0 -72 -61 -79 -87 -4 -13 4 -38 20 -66 20 -33 26 -58 26 -100 0 -51 -4 -61
-36 -96 -26 -29 -52 -45 -97 -60 -137 -44 -239 -53 -245 -21 -1 9 17 29 43 48
l47 33 -7 74 c-13 130 -5 154 86 253 45 50 103 103 136 122 l57 35 896 2
c1181 2 1176 2 1220 30 47 29 176 162 184 189 5 15 -1 31 -17 50 -45 54 -60
94 -53 143 18 128 144 194 258 135z m-483 -49 c121 -61 153 -181 79 -291 -48
-71 -179 -105 -253 -65 -43 23 -70 27 -80 11 -19 -30 -97 -32 -993 -31 -631 1
-915 -2 -944 -9 -30 -9 -65 -35 -139 -107 -54 -52 -101 -104 -104 -114 -4 -13
3 -31 21 -52 63 -75 72 -164 24 -240 -66 -105 -167 -115 -247 -24 -46 53 -58
98 -43 166 10 47 20 64 61 102 27 26 49 55 49 65 0 66 185 265 298 321 l57 28
720 2 c847 2 1124 8 1183 24 36 10 42 15 42 38 0 58 21 100 71 145 69 62 121
71 198 31z m-3767 -51 c12 -11 -4 -42 -28 -55 -21 -11 -27 -10 -42 5 -16 16
-16 18 7 37 23 18 52 25 63 13z m-624 -60 c25 -28 26 -40 9 -71 l-13 -23 -36
20 c-29 15 -37 16 -41 6 -3 -8 4 -24 15 -36 11 -12 18 -29 15 -40 -3 -11 0
-21 5 -22 8 -3 8 -10 0 -24 -6 -12 -7 -35 -2 -64 5 -25 9 -207 10 -406 l0
-360 33 -44 c42 -58 44 -118 3 -158 -57 -58 -194 -21 -211 57 -10 47 21 101
68 119 l39 16 -4 408 -3 408 -28 21 c-34 25 -61 83 -53 114 6 25 47 72 85 98
33 22 78 14 109 -19z m941 -27 c74 -49 96 -165 45 -244 -54 -82 -136 -97 -220
-40 -57 38 -84 85 -84 147 1 135 146 212 259 137z m410 -77 c65 -45 87 -139
52 -215 -48 -104 -129 -129 -234 -72 -55 30 -82 79 -82 148 0 67 34 126 86
153 48 24 135 17 178 -14z m-1036 -304 c108 -45 119 -198 20 -261 -18 -11 -33
-24 -35 -30 -2 -5 -2 -111 0 -236 l3 -225 29 -18 c67 -39 92 -160 47 -227 -12
-18 -38 -44 -56 -56 l-34 -23 2 -142 2 -143 35 -31 c19 -18 41 -48 49 -68 13
-31 13 -40 1 -70 -32 -78 -123 -100 -188 -45 -70 57 -70 153 1 195 l31 18 0
127 c0 70 2 133 4 141 3 7 -14 27 -36 43 -59 43 -80 76 -85 132 -5 57 25 117
74 148 30 20 31 22 38 120 4 55 4 160 2 234 l-6 135 -34 17 c-85 44 -101 164
-29 232 49 46 106 58 165 33z m373 -350 c26 -26 34 -42 34 -70 0 -48 -18 -85
-50 -101 -26 -13 -27 -17 -19 -62 4 -26 8 -249 8 -494 l1 -447 25 -6 c63 -16
107 -144 72 -212 -54 -104 -188 -112 -254 -14 -51 75 -38 163 32 212 l44 31 0
480 c0 324 4 483 11 492 8 10 4 15 -18 23 -74 25 -96 106 -44 154 64 60 108
64 158 14z m320 -92 c67 -44 70 -149 6 -188 -12 -7 -13 -35 -8 -165 4 -90 2
-173 -3 -196 -7 -29 -7 -41 2 -46 86 -49 128 -101 127 -160 -1 -41 -33 -92
-75 -120 l-40 -27 3 -309 3 -310 23 -12 c36 -20 76 -90 76 -133 0 -121 -105
-194 -197 -136 -38 23 -83 104 -83 148 0 32 34 88 72 120 l30 26 -7 308 c-7
271 -9 308 -24 313 -26 10 -64 42 -83 71 -43 65 3 181 82 210 l24 9 -2 193 -2
192 -43 38 c-38 34 -42 42 -42 83 0 86 90 137 161 91z m4022 -64 c5 -91 -13
-154 -40 -133 -35 27 -138 30 -1125 32 -952 2 -1024 1 -1050 -15 -34 -21 -83
-65 -83 -74 0 -4 19 -12 43 -19 74 -22 109 -72 132 -188 4 -18 11 -33 16 -33
4 0 54 -62 111 -137 113 -153 188 -299 188 -368 0 -22 -9 -64 -20 -93 -13 -35
-20 -76 -20 -125 0 -70 2 -76 45 -141 47 -72 57 -119 29 -130 -29 -11 -124 -6
-159 9 -44 18 -54 44 -62 159 -5 75 -2 104 16 167 28 99 28 209 1 264 -19 38
-73 115 -168 239 -46 61 -69 69 -102 36 -37 -37 -23 -72 80 -184 88 -98 118
-173 90 -227 -20 -37 -47 -20 -161 107 -145 161 -191 222 -233 310 -42 87 -56
136 -56 194 0 41 5 50 46 90 25 25 66 75 91 113 49 73 107 126 169 154 36 17
107 18 1055 20 857 2 1021 4 1055 17 21 8 55 13 74 13 l35 -2 3 -55z m-3654
-86 c40 -20 76 -78 76 -124 0 -43 -37 -107 -71 -122 l-27 -12 -6 -370 c-4
-204 -5 -454 -2 -556 2 -102 5 -221 5 -266 1 -76 2 -81 27 -94 35 -20 74 -89
74 -134 0 -45 -30 -107 -62 -128 -62 -41 -132 -30 -189 28 -31 32 -34 40 -34
93 1 47 6 67 29 101 15 23 36 44 46 47 12 3 19 18 24 50 8 60 8 1058 0 1156
-6 70 -9 77 -34 87 -76 31 -81 160 -8 226 41 38 96 44 152 18z m3630 -79 c7
-20 -48 -236 -78 -301 -47 -102 -148 -238 -260 -349 -134 -133 -237 -205 -349
-241 -78 -26 -94 -27 -332 -31 -281 -5 -319 0 -455 65 -117 56 -232 184 -319
355 -20 40 -61 110 -90 157 -82 132 -142 251 -148 298 l-6 42 50 0 c66 0 100
-34 148 -148 28 -66 48 -98 85 -134 27 -26 52 -60 56 -75 23 -105 39 -113 253
-130 285 -21 989 -9 1081 18 47 14 75 42 66 65 -6 15 -44 16 -474 12 -724 -6
-872 5 -900 67 -9 20 -8 24 16 33 56 22 125 24 752 28 355 1 655 3 667 4 16 0
29 12 43 40 11 21 20 42 20 45 0 3 -350 5 -777 5 -428 -1 -791 3 -808 8 -24 7
-34 18 -48 56 -9 26 -15 52 -12 57 3 5 342 8 798 8 436 -1 815 2 842 6 28 4
70 18 95 31 53 27 76 30 84 9z m-3344 -422 c16 -18 30 -42 30 -52 0 -35 -22
-82 -45 -94 l-24 -12 -4 -490 c-2 -327 -7 -499 -15 -517 -17 -40 -48 -27 -56
24 -4 22 -6 251 -6 509 l1 469 -30 26 c-26 21 -31 33 -31 67 0 53 32 96 80
106 48 10 65 4 100 -36z m668 6 c81 -63 91 -183 21 -255 -18 -19 -41 -36 -51
-40 -17 -5 -18 -24 -18 -299 0 -283 1 -295 20 -305 11 -6 31 -31 46 -56 66
-113 -15 -257 -137 -241 -44 6 -95 41 -115 79 -17 32 -18 121 -3 151 20 38 51
66 80 72 l29 7 0 293 0 293 -35 21 c-49 29 -75 75 -75 136 0 131 144 218 238
144z m-438 1 c9 -18 7 -316 -3 -326 -3 -3 -15 -3 -26 1 -18 5 -21 14 -21 62 0
31 -5 96 -11 144 -14 110 -8 140 27 137 14 -2 30 -10 34 -18z m-1858 -67 c52
-60 -6 -138 -64 -86 -34 31 -16 103 26 103 13 0 30 -8 38 -17z m2574 -298 c60
-46 54 -113 -12 -135 -31 -10 -35 -15 -30 -38 13 -69 16 -127 21 -407 5 -292
6 -300 26 -311 60 -33 79 -141 38 -214 -28 -49 -88 -84 -131 -75 -41 10 -113
82 -121 124 -14 67 25 147 81 170 l28 12 2 347 c2 303 4 348 18 359 13 9 11
12 -15 18 -17 3 -44 19 -61 35 -25 24 -30 34 -24 57 8 34 19 47 59 67 43 23
83 20 121 -9z m-669 -31 c107 -51 109 -203 4 -262 l-41 -23 0 -280 0 -280 35
-46 c40 -53 44 -86 15 -142 -35 -69 -91 -97 -140 -71 -11 6 -33 30 -50 54 -45
66 -39 142 11 129 10 -3 19 -13 19 -23 0 -10 12 -33 26 -50 20 -23 34 -30 53
-28 21 2 27 9 29 36 3 26 -3 39 -29 63 -21 19 -35 44 -40 72 -4 23 -8 162 -9
309 l0 267 -30 16 c-92 47 -92 191 -1 252 41 27 98 30 148 7z m1402 -50 c28
-15 59 -37 67 -49 18 -27 48 -214 49 -300 0 -70 -7 -74 -91 -56 l-52 12 -11
67 c-5 37 -13 101 -16 142 -3 41 -13 103 -21 138 -8 35 -14 65 -14 68 0 11 42
1 89 -22z m-510 -299 c10 5 24 -72 16 -85 -3 -4 1 -10 8 -13 9 -3 13 -23 13
-58 -1 -42 -5 -54 -18 -57 -24 -5 -35 24 -39 98 -3 84 2 189 8 142 2 -18 8
-30 12 -27z m1311 -25 c53 -28 45 -109 -12 -129 -48 -17 -68 -13 -78 15 -33
85 20 152 90 114z m-3470 -122 c27 -29 22 -58 -12 -77 -24 -14 -28 -14 -47 3
-11 10 -18 23 -14 28 3 6 0 14 -8 19 -11 6 -10 12 5 28 25 27 50 27 76 -1z
m3061 -77 c22 -29 40 -41 63 -43 25 -2 32 -8 34 -30 7 -57 -46 -98 -125 -98
-48 0 -59 7 -77 50 -26 63 8 160 55 160 10 0 32 -18 50 -39z m-822 -16 c34
-17 41 -33 41 -87 0 -32 -7 -47 -34 -74 -29 -29 -41 -34 -79 -34 -67 0 -107
36 -107 97 0 38 5 50 34 79 28 28 42 34 75 34 23 0 55 -7 70 -15z m506 -110
c34 -19 45 -33 54 -68 11 -36 10 -49 -4 -84 -21 -53 -42 -66 -134 -87 -40 -9
-89 -23 -109 -31 -69 -30 -124 -11 -135 45 -8 36 5 72 39 114 14 17 35 46 47
65 47 73 160 95 242 46z m-1818 -197 c30 -38 16 -139 -22 -164 -66 -43 -127
82 -74 150 22 28 78 36 96 14z m1342 -64 c26 -33 37 -89 22 -120 -9 -20 -18
-24 -55 -24 -36 0 -48 5 -65 26 -25 32 -26 55 -6 94 28 54 72 65 104 24z
m-669 -94 c13 -13 20 -33 20 -61 0 -37 -3 -41 -36 -55 -44 -19 -101 -4 -113
29 -10 28 4 78 26 95 26 19 80 15 103 -8z"/>
<path d="M8134 6617 c-23 -20 -26 -28 -20 -60 9 -46 45 -74 75 -57 44 23 55
86 21 120 -26 26 -43 25 -76 -3z"/>
<path d="M6246 8771 c-25 -28 -18 -79 16 -104 25 -19 28 -19 52 -3 33 21 43
62 25 95 -19 34 -68 40 -93 12z"/>
<path d="M5358 8779 c-49 -28 -42 -96 13 -124 26 -14 30 -13 58 11 45 38 42
87 -6 113 -26 13 -42 14 -65 0z"/>
<path d="M4660 8510 c-39 -39 -11 -110 44 -110 32 0 50 24 50 67 0 58 -54 83
-94 43z"/>
<path d="M6961 8526 c-28 -34 22 -96 64 -80 20 8 31 53 18 73 -14 22 -66 26
-82 7z"/>
<path d="M5644 8305 c-22 -34 -11 -71 28 -91 31 -16 32 -16 55 10 28 33 29 46
2 80 -26 34 -63 34 -85 1z"/>
<path d="M4003 8138 c-30 -39 -17 -89 26 -101 28 -7 71 28 71 58 0 42 -73 74
-97 43z"/>
<path d="M6592 8237 c-29 -30 -28 -68 2 -96 56 -53 133 41 81 99 -24 27 -57
25 -83 -3z"/>
<path d="M7600 8070 c-24 -24 -25 -43 -4 -64 21 -21 57 -20 77 2 22 24 21 45
-1 65 -25 22 -48 21 -72 -3z"/>
<path d="M4304 7925 c-14 -21 -14 -30 -4 -55 15 -37 44 -47 75 -26 46 30 22
106 -33 106 -12 0 -29 -11 -38 -25z"/>
<path d="M7329 7852 c-15 -13 -22 -30 -22 -52 0 -22 7 -39 22 -52 30 -23 42
-23 75 3 33 26 34 62 1 94 -29 30 -45 31 -76 7z"/>
<path d="M6944 7615 c-33 -50 20 -104 71 -71 27 18 34 63 13 84 -21 21 -66 14
-84 -13z"/>
<path d="M7734 7602 c-38 -25 -39 -91 -1 -117 47 -33 97 -3 97 57 0 49 -59 85
-96 60z"/>
<path d="M3711 7384 c-27 -34 -26 -55 2 -82 30 -29 71 -28 91 0 22 31 20 64
-4 88 -28 28 -64 25 -89 -6z"/>
<path d="M4913 7390 c-29 -12 -29 -23 2 -76 30 -50 56 -62 90 -40 20 13 25 25
25 56 0 22 -7 45 -16 54 -17 17 -66 20 -101 6z"/>
<path d="M4582 7108 c-31 -31 0 -108 43 -108 39 0 62 32 55 80 -4 35 -72 54
-98 28z"/>
<path d="M7865 7016 c-21 -21 -23 -28 -14 -54 13 -38 42 -65 65 -60 10 2 28
18 41 36 18 27 20 38 12 60 -19 49 -65 57 -104 18z"/>
<path d="M5347 6262 c-23 -25 -22 -75 3 -97 46 -41 111 27 79 84 -18 32 -59
39 -82 13z"/>
<path d="M7385 6955 c-14 -13 -25 -31 -25 -40 0 -24 27 -72 45 -79 51 -19 105
16 105 68 0 34 -41 76 -75 76 -14 0 -37 -11 -50 -25z"/>
<path d="M4950 6323 c-27 -35 -23 -73 11 -92 59 -33 108 50 59 99 -27 27 -44
25 -70 -7z"/>
<path d="M3003 5863 c-7 -2 -13 -18 -13 -34 0 -41 41 -61 70 -34 46 42 3 93
-57 68z"/>
<path d="M3931 6846 c-21 -25 -9 -79 21 -96 26 -14 29 -13 49 7 24 23 28 65 9
88 -16 19 -64 19 -79 1z"/>
<path d="M4326 6775 c-12 -32 -6 -72 13 -89 44 -40 106 12 85 71 -8 24 -16 28
-50 31 -31 2 -43 -1 -48 -13z"/>
<path d="M3350 6487 c-21 -11 -25 -20 -25 -57 0 -37 4 -47 26 -59 24 -13 29
-13 53 2 35 23 37 88 4 111 -27 19 -26 19 -58 3z"/>
<path d="M3326 5698 c-9 -12 -16 -30 -16 -39 0 -24 39 -69 59 -69 26 0 61 37
61 65 0 56 -74 86 -104 43z"/>
<path d="M3340 5110 c-24 -24 -24 -29 -4 -58 18 -27 45 -28 67 -4 48 52 -13
112 -63 62z"/>
<path d="M3696 4938 c-9 -12 -16 -32 -16 -44 0 -23 42 -64 66 -64 23 0 54 38
54 65 0 56 -74 86 -104 43z"/>
<path d="M4050 6045 c0 -28 25 -44 42 -27 15 15 -1 52 -23 52 -14 0 -19 -7
-19 -25z"/>
<path d="M4042 5418 c-22 -22 -14 -74 13 -92 34 -23 62 -20 80 8 19 29 11 72
-15 86 -25 14 -64 12 -78 -2z"/>
<path d="M4044 4484 c-14 -55 37 -100 85 -74 15 7 21 20 21 43 0 43 -15 57
-62 57 -32 0 -39 -4 -44 -26z"/>
<path d="M5808 5726 c-45 -22 -27 -95 28 -116 42 -16 64 3 64 54 0 24 -6 48
-12 53 -22 17 -56 21 -80 9z"/>
<path d="M4380 5890 c-23 -23 -25 -42 -9 -73 29 -55 90 -46 104 15 5 21 1 33
-19 52 -30 31 -49 33 -76 6z"/>
<path d="M4386 4331 c-25 -28 -17 -72 16 -90 25 -15 29 -14 52 8 30 28 32 47
10 79 -19 27 -55 28 -78 3z"/>
<path d="M6561 5258 c20 -32 153 -96 236 -113 99 -21 527 -21 608 0 70 19 136
53 190 100 l40 35 -210 -7 c-270 -10 -486 -10 -704 0 l-174 8 14 -23z"/>
<path d="M5316 5384 c-9 -8 -16 -30 -16 -48 0 -57 58 -87 93 -48 20 22 22 83
5 100 -17 17 -64 15 -82 -4z"/>
<path d="M5296 4478 c-22 -31 -20 -64 4 -88 34 -34 71 -24 89 23 15 38 14 44
-9 67 -27 27 -65 26 -84 -2z"/>
<path d="M5612 4138 c-29 -29 2 -108 41 -108 23 0 47 35 47 66 0 37 -16 54
-50 54 -14 0 -31 -5 -38 -12z"/>
<path d="M4944 4985 c-33 -50 16 -112 67 -84 43 22 44 84 2 100 -38 14 -51 11
-69 -16z"/>
<path d="M5941 4436 c-21 -26 -9 -51 24 -51 27 0 30 3 30 30 0 23 -5 31 -21
33 -11 2 -26 -4 -33 -12z"/>
<path d="M6377 4342 c-22 -24 -39 -71 -32 -92 10 -30 82 -52 111 -32 18 11 34
48 34 76 0 55 -77 88 -113 48z"/>
<path d="M7445 9580 c-3 -5 -1 -10 4 -10 6 0 11 5 11 10 0 6 -2 10 -4 10 -3 0
-8 -4 -11 -10z"/>
<path d="M7925 8870 c3 -5 11 -10 16 -10 6 0 7 5 4 10 -3 6 -11 10 -16 10 -6
0 -7 -4 -4 -10z"/>
<path d="M8016 8814 c-9 -24 -7 -27 9 -10 17 17 19 26 6 26 -5 0 -12 -7 -15
-16z"/>
<path d="M8046 8765 c4 -8 11 -15 16 -15 6 0 5 6 -2 15 -7 8 -14 15 -16 15 -2
0 -1 -7 2 -15z"/>
<path d="M8085 8740 c-3 -5 1 -10 10 -10 9 0 13 5 10 10 -3 6 -8 10 -10 10 -2
0 -7 -4 -10 -10z"/>
<path d="M8340 8441 c0 -6 4 -13 10 -16 6 -3 7 1 4 9 -7 18 -14 21 -14 7z"/>
<path d="M8760 7600 c0 -5 5 -10 10 -10 6 0 10 5 10 10 0 6 -4 10 -10 10 -5 0
-10 -4 -10 -10z"/>
<path d="M3170 4734 c0 -5 14 -25 31 -44 l30 -35 -27 40 c-16 22 -29 42 -31
44 -2 2 -3 0 -3 -5z"/>
<path d="M3337 4515 c40 -51 129 -137 115 -110 -6 11 -41 49 -78 85 -50 48
-59 55 -37 25z"/>
<path d="M3286 4390 c51 -74 197 -246 228 -270 33 -25 12 4 -95 130 -84 100
-164 184 -133 140z"/>
<path d="M3823 10088 c-21 -28 -22 -52 -4 -93 33 -75 100 -96 122 -39 25 67
-79 182 -118 132z"/>
<path d="M7859 10032 c-50 -51 -59 -85 -28 -118 30 -32 62 -30 93 6 27 33 48
93 40 114 -5 12 -46 36 -61 36 -3 0 -23 -17 -44 -38z"/>
<path d="M8397 9650 c-62 -54 -69 -112 -18 -139 23 -13 75 18 94 56 28 54 29
71 8 92 -28 28 -44 26 -84 -9z"/>
<path d="M2855 9309 c-35 -28 -31 -55 14 -100 43 -43 78 -50 104 -21 24 26 21
56 -8 90 -37 45 -78 56 -110 31z"/>
<path d="M2501 8844 c-17 -14 -31 -35 -31 -45 0 -33 29 -78 61 -94 28 -15 33
-15 55 -1 65 43 67 101 5 143 -43 29 -53 29 -90 -3z"/>
<path d="M9095 8838 c-58 -34 -72 -98 -31 -138 14 -12 36 -22 50 -22 37 0 90
34 94 61 6 39 -19 82 -54 97 -39 16 -34 16 -59 2z"/>
<path d="M9400 8371 c-28 -11 -56 -35 -74 -63 -17 -26 -17 -30 -2 -54 24 -36
54 -45 96 -27 19 7 42 21 52 30 21 19 24 76 5 91 -21 18 -61 30 -77 23z"/>
<path d="M1857 7292 c-19 -21 -23 -92 -7 -122 13 -25 67 -42 91 -30 48 26 60
110 22 152 -22 24 -84 24 -106 0z"/>
<path d="M9702 7297 c-45 -48 -18 -143 46 -162 28 -8 82 42 82 78 0 91 -75
140 -128 84z"/>
<path d="M9544 5403 c-4 -16 -2 -36 7 -52 31 -55 128 -83 155 -46 22 30 17 45
-26 87 -35 32 -47 38 -85 38 -40 0 -45 -3 -51 -27z"/>
<path d="M2226 4899 c-35 -28 -35 -76 0 -118 33 -40 74 -41 111 -5 32 33 26
77 -17 117 -36 32 -58 34 -94 6z"/>
<path d="M9355 4904 c-45 -48 -28 -118 35 -144 25 -11 34 -10 56 5 37 24 57
77 42 110 -13 29 -55 55 -88 55 -12 0 -32 -12 -45 -26z"/>
<path d="M9056 4378 c-22 -31 -21 -39 20 -86 40 -48 61 -52 92 -19 31 33 28
70 -9 101 -38 33 -82 34 -103 4z"/>
<path d="M2720 4181 c0 -13 29 -35 37 -28 7 8 -15 37 -28 37 -5 0 -9 -4 -9 -9z"/>
<path d="M8721 3926 c-17 -18 -22 -32 -17 -50 6 -26 80 -86 106 -86 22 0 47
28 55 62 6 23 1 34 -28 63 -43 43 -83 46 -116 11z"/>
<path d="M2915 3873 c-43 -45 -45 -85 -4 -115 25 -19 28 -19 58 -3 34 17 71
68 71 98 0 25 -36 57 -65 57 -15 0 -38 -14 -60 -37z"/>
<path d="M8350 3550 c-33 -33 -26 -76 19 -121 51 -51 84 -51 110 -2 15 30 -5
80 -48 116 -39 32 -54 34 -81 7z"/>
<path d="M3320 3490 c-63 -63 -51 -120 25 -120 31 0 75 42 95 90 11 27 10 33
-5 50 -29 32 -70 25 -115 -20z"/>
<path d="M7825 3176 c-20 -20 -23 -29 -16 -53 13 -45 32 -71 67 -89 84 -46
104 58 27 139 -33 33 -47 34 -78 3z"/>
<path d="M3850 3134 c-48 -55 -55 -82 -29 -111 13 -12 30 -23 39 -23 20 0 62
44 85 88 15 31 15 36 0 58 -23 35 -57 31 -95 -12z"/>
<path d="M7326 2914 c-20 -19 -20 -37 -2 -73 41 -79 138 -80 121 -1 -15 70
-82 112 -119 74z"/>
<path d="M4831 2714 c-40 -51 -20 -144 31 -144 24 0 66 55 74 96 13 68 -62
102 -105 48z"/>
<path d="M6245 2630 c-35 -39 0 -160 47 -160 30 0 47 28 48 78 0 86 -51 131
-95 82z"/>
</g>
</svg>
